<svg width="663" height="257" viewBox="0 0 663 257" fill="none" xmlns="http://www.w3.org/2000/svg">
<rect x="140.148" y="1.5" width="296.061" height="206.742" rx="23.5" stroke="black" stroke-width="3"/>
<rect x="154.646" y="16.8906" width="265.289" height="152.419" rx="20" fill="#5F7FC4"/>
<rect x="156.146" y="18.3906" width="262.289" height="149.419" rx="18.5" stroke="black" stroke-width="3"/>
<path d="M246.354 254.266C246.354 250.383 249.502 247.234 253.385 247.234H322.529C326.413 247.234 329.561 250.383 329.561 254.266C329.561 254.616 329.278 254.899 328.928 254.899H246.986C246.637 254.899 246.354 254.616 246.354 254.266Z" stroke="black" stroke-width="3"/>
<path d="M263.83 246.454L267.324 209.461H308.793L311.876 246.454H263.83Z" stroke="black" stroke-width="3"/>
<circle cx="287.957" cy="191.525" r="5.16554" stroke="black" stroke-width="3"/>
<rect x="352.383" y="99.0938" width="215.075" height="143.976" rx="25" fill="white"/>
<rect x="353.883" y="100.594" width="212.075" height="140.976" rx="23.5" stroke="black" stroke-opacity="0.84" stroke-width="3"/>
<rect x="361.271" y="110.641" width="196.856" height="122.202" rx="9" fill="#EFB43B"/>
<rect x="362.771" y="112.141" width="193.856" height="119.202" rx="7.5" stroke="black" stroke-opacity="0.84" stroke-width="3"/>
<path d="M581.512 244.675C581.512 250.326 576.931 254.906 571.28 254.906L349.007 254.906C343.356 254.906 338.775 250.326 338.775 244.675C338.775 243.884 339.417 243.242 340.208 243.242L580.079 243.242C580.87 243.242 581.512 243.884 581.512 244.675Z" stroke="black" stroke-opacity="0.84" stroke-width="3"/>
<path d="M475.307 243.07C475.307 246.168 472.795 248.68 469.697 248.68L450.144 248.68C447.046 248.68 444.535 246.168 444.535 243.07C444.535 242.917 444.659 242.792 444.812 242.792L475.029 242.792C475.182 242.792 475.307 242.917 475.307 243.07Z" stroke="black" stroke-opacity="0.84" stroke-width="3"/>
<rect x="112.162" y="143.664" width="56.5455" height="111.203" rx="18.5" fill="#CACACA" stroke="black" stroke-width="3"/>
<path d="M168.709 242.503C168.709 249.331 163.173 254.867 156.345 254.867L124.528 254.867C117.699 254.867 112.163 249.331 112.163 242.503C112.163 241.417 113.044 240.537 114.13 240.537L166.743 240.537C167.829 240.537 168.709 241.417 168.709 242.503Z" fill="white" stroke="black" stroke-width="3"/>
<path d="M112.158 156.028C112.158 149.2 117.694 143.664 124.523 143.664H156.339C163.168 143.664 168.704 149.2 168.704 156.028C168.704 157.114 167.823 157.994 166.738 157.994H114.124C113.038 157.994 112.158 157.114 112.158 156.028Z" fill="white" stroke="black" stroke-width="3"/>
<circle cx="127.767" cy="197.491" r="5.99899" fill="#5F7FC4"/>
<circle cx="140.653" cy="246.817" r="3.33277" fill="#EFB43B"/>
<path d="M138.654 190.602H148.208H157.762" stroke="black" stroke-width="3" stroke-linecap="round"/>
<path d="M124.877 149.273H154.65" stroke="black" stroke-width="3" stroke-linecap="round"/>
<path d="M138.654 197.266H151.985" stroke="black" stroke-width="3" stroke-linecap="round"/>
<path d="M138.654 203.484H146.209" stroke="black" stroke-width="3" stroke-linecap="round"/>
<path d="M126.035 153.755C126.035 177.967 106.506 197.581 82.4316 197.581C58.357 197.581 38.8281 177.967 38.8281 153.755C38.8281 129.544 58.357 109.93 82.4316 109.93C106.506 109.93 126.035 129.544 126.035 153.755Z" fill="#EFB43B" stroke="black" stroke-width="3"/>
<path d="M76.877 171.086L88.8749 135.536" stroke="black" stroke-width="3" stroke-linecap="round"/>
<path d="M58.6582 153.312L71.1005 142.203" stroke="black" stroke-width="3" stroke-linecap="round"/>
<path d="M107.094 153.758L94.6514 164.867" stroke="black" stroke-width="3" stroke-linecap="round"/>
<path d="M58.6582 153.758L71.1005 164.867" stroke="black" stroke-width="3" stroke-linecap="round"/>
<path d="M107.094 153.312L94.6514 142.203" stroke="black" stroke-width="3" stroke-linecap="round"/>
<path d="M83.4977 228.522L83.3957 228.546L83.2981 228.584L82.6843 228.823C73.3564 232.454 73.5781 245.729 83.022 249.047C83.3408 249.159 83.671 249.235 84.0065 249.275L88.7641 249.836C89.052 249.87 89.332 249.953 89.5919 250.082C92.0006 251.272 91.1533 254.899 88.4664 254.899H18.2191C8.9854 254.899 1.5 247.414 1.5 238.18C1.5 228.946 8.98542 221.461 18.2192 221.461H88.0406C91.1114 221.461 92.143 225.565 89.4371 227.017C89.2106 227.139 88.9692 227.23 88.719 227.289L83.4977 228.522Z" fill="#5F7FC4" stroke="black" stroke-width="3"/>
<path d="M77.2362 244.007L77.2677 244.098L77.3103 244.183L78.1991 245.96L78.401 246.364L78.7923 246.589C79.498 246.996 79.2146 248.074 78.4002 248.081L17.3163 248.583C11.7843 248.628 7.27539 244.156 7.27539 238.624C7.27539 233.071 11.7765 228.57 17.329 228.57H82.2735C82.2878 228.57 82.2967 228.572 82.3014 228.572C82.3047 228.576 82.3113 228.586 82.3166 228.601C82.3219 228.617 82.3222 228.628 82.3219 228.633C82.3188 228.637 82.3124 228.643 82.301 228.652L79.5754 230.717C78.7936 231.309 78.1396 232.054 77.653 232.905L78.9553 233.649L77.653 232.905L77.593 233.01C77.3788 233.385 77.2048 233.781 77.0739 234.193C76.0624 237.372 76.1113 240.794 77.2134 243.942L77.2362 244.007Z" fill="white" stroke="black" stroke-width="3"/>
<path d="M16.8867 234.625H74.2104" stroke="black" stroke-width="3" stroke-linecap="round"/>
<path d="M16.8867 242.18H74.2104" stroke="black" stroke-width="3" stroke-linecap="round"/>
<mask id="path-32-inside-1_12_123" fill="white">
<path d="M646.338 245.736C650.757 245.736 654.996 243.84 658.121 240.465C661.246 237.09 663.002 232.512 663.002 227.739C663.002 222.966 661.246 218.388 658.121 215.013C654.996 211.638 650.757 209.742 646.338 209.742L646.338 227.739V245.736Z"/>
</mask>
<path d="M646.338 245.736C650.757 245.736 654.996 243.84 658.121 240.465C661.246 237.09 663.002 232.512 663.002 227.739C663.002 222.966 661.246 218.388 658.121 215.013C654.996 211.638 650.757 209.742 646.338 209.742L646.338 227.739V245.736Z" stroke="black" stroke-width="6" mask="url(#path-32-inside-1_12_123)"/>
<mask id="path-33-inside-2_12_123" fill="white">
<path d="M645.671 238.626C648.499 238.626 651.212 237.479 653.212 235.437C655.212 233.395 656.336 230.626 656.336 227.739C656.336 224.851 655.212 222.082 653.212 220.04C651.212 217.999 648.499 216.852 645.671 216.852L645.671 227.739V238.626Z"/>
</mask>
<path d="M645.671 238.626C648.499 238.626 651.212 237.479 653.212 235.437C655.212 233.395 656.336 230.626 656.336 227.739C656.336 224.851 655.212 222.082 653.212 220.04C651.212 217.999 648.499 216.852 645.671 216.852L645.671 227.739V238.626Z" stroke="black" stroke-width="6" mask="url(#path-33-inside-2_12_123)"/>
<mask id="path-34-inside-3_12_123" fill="white">
<path d="M628.786 200.634C628.786 199.043 628.037 197.517 626.704 196.392C625.37 195.267 623.562 194.635 621.676 194.635C619.791 194.635 617.982 195.267 616.649 196.392C615.315 197.517 614.566 199.043 614.566 200.634L621.676 200.634L628.786 200.634Z"/>
</mask>
<path d="M628.786 200.634C628.786 199.043 628.037 197.517 626.704 196.392C625.37 195.267 623.562 194.635 621.676 194.635C619.791 194.635 617.982 195.267 616.649 196.392C615.315 197.517 614.566 199.043 614.566 200.634L621.676 200.634L628.786 200.634Z" stroke="black" stroke-width="6" mask="url(#path-34-inside-3_12_123)"/>
<path d="M595.625 202.18C595.625 200.799 596.744 199.68 598.125 199.68H643.894C645.274 199.68 646.394 200.799 646.394 202.18V241.392C646.394 248.848 640.35 254.892 632.894 254.892H609.125C601.669 254.892 595.625 248.848 595.625 241.392V202.18Z" stroke="black" stroke-width="3"/>
<path d="M620.064 221.633C620.064 218.595 622.527 216.133 625.564 216.133H628.895C631.932 216.133 634.395 218.595 634.395 221.633V228.074C634.395 231.111 631.932 233.574 628.895 233.574H625.564C622.527 233.574 620.064 231.111 620.064 228.074V221.633Z" fill="#F26440" stroke="black" stroke-width="3"/>
<path d="M627.453 199.516L627.453 207.292L627.453 215.069" stroke="black" stroke-width="3" stroke-linecap="round"/>
</svg>
