<svg width="31" height="28" viewBox="0 0 31 28" fill="none" xmlns="http://www.w3.org/2000/svg">
<path d="M16.1407 2.54204L26.9143 15.3874C27.8143 16.4606 29.5636 15.8241 29.5636 14.4235V1.57812C29.5636 0.749698 28.892 0.078125 28.0636 0.078125H17.29C16.016 0.078125 15.3221 1.56593 16.1407 2.54204Z" fill="#031D70"/>
<path d="M9.60969 0.59593L28.4927 25.5959C29.2391 26.5841 28.5341 28 27.2957 28H20.759C20.2998 28 19.8659 27.7897 19.5815 27.4293L11.8371 17.6161C10.9556 16.4991 9.15957 17.1225 9.15957 18.5454V26.5C9.15957 27.3284 8.488 28 7.65957 28H1.5C0.671573 28 0 27.3284 0 26.5V1.5C0 0.671573 0.671573 0 1.5 0H8.41276C8.8831 0 9.32621 0.220615 9.60969 0.59593Z" fill="#031D70"/>
</svg>
